<svg id="esYHjOhBfIU1" xmlns="http://www.w3.org/2000/svg" xmlns:xlink="http://www.w3.org/1999/xlink" viewBox="0 0 26 26" shape-rendering="geometricPrecision" text-rendering="geometricPrecision"><defs><linearGradient id="esYHjOhBfIU2-fill" x1="0" y1="0.5" x2="1" y2="0.5" spreadMethod="pad" gradientUnits="objectBoundingBox" gradientTransform="translate(0 0)"><stop id="esYHjOhBfIU2-fill-0" offset="0%" stop-color="#b40303"/><stop id="esYHjOhBfIU2-fill-1" offset="25%" stop-color="#d90a0a"/><stop id="esYHjOhBfIU2-fill-2" offset="77%" stop-color="#0a27ab"/><stop id="esYHjOhBfIU2-fill-3" offset="100%" stop-color="#021543"/></linearGradient><linearGradient id="esYHjOhBfIU2-stroke" x1="0" y1="0.5" x2="1" y2="0.5" spreadMethod="pad" gradientUnits="objectBoundingBox" gradientTransform="translate(0 0)"><stop id="esYHjOhBfIU2-stroke-0" offset="0%" stop-color="#bd0505"/><stop id="esYHjOhBfIU2-stroke-1" offset="12%" stop-color="#c5a423"/><stop id="esYHjOhBfIU2-stroke-2" offset="32%" stop-color="#94d255"/><stop id="esYHjOhBfIU2-stroke-3" offset="63%" stop-color="#a3e7e5"/><stop id="esYHjOhBfIU2-stroke-4" offset="84%" stop-color="#2e98e9"/><stop id="esYHjOhBfIU2-stroke-5" offset="96%" stop-color="#2e46e9"/></linearGradient></defs><path d="M10,0.1875C4.578125,0.1875,0.1875,4.578125,0.1875,10s4.390625,9.8125,9.8125,9.8125c2.289063,0,4.394531-.808594,6.0625-2.125l.875.875c-.367187.691406-.238281,1.574219.34375,2.15625l4.59375,4.625c.714844.714844,1.878906.714844,2.59375,0l.875-.875c.714844-.714844.714844-1.878906,0-2.59375l-4.625-4.59375c-.585937-.585937-1.464844-.6875-2.15625-.3125l-.875-.875c1.324219-1.671875,2.125-3.792969,2.125-6.09375c0-5.421875-4.390625-9.8125-9.8125-9.8125ZM10,2c4.417969,0,8,3.582031,8,8s-3.582031,8-8,8-8-3.582031-8-8s3.582031-8,8-8ZM4.9375,7.46875c-.515625.835938-.8125,1.820313-.8125,2.875c0,3.027344,2.441406,5.46875,5.46875,5.46875c1.167969,0,2.265625-.378906,3.15625-1-.238281.027344-.503906.03125-.75.03125-3.914062,0-7.0625-3.148437-7.0625-7.0625c0-.105469-.003906-.207031,0-.3125Z" transform="translate(-.1875 0.120117)" fill="url(#esYHjOhBfIU2-fill)" stroke="url(#esYHjOhBfIU2-stroke)" stroke-width="0.2" stroke-miterlimit="1"/></svg>
