<svg id="e5a0VUIpR7q1" xmlns="http://www.w3.org/2000/svg" xmlns:xlink="http://www.w3.org/1999/xlink" viewBox="0 0 25 24" shape-rendering="geometricPrecision" text-rendering="geometricPrecision"><defs><linearGradient id="e5a0VUIpR7q5-stroke" x1="0" y1="0.5" x2="1" y2="0.5" spreadMethod="pad" gradientUnits="objectBoundingBox" gradientTransform="translate(0 0)"><stop id="e5a0VUIpR7q5-stroke-0" offset="6%" stop-color="#ea2413"/><stop id="e5a0VUIpR7q5-stroke-1" offset="12%" stop-color="#ec3126"/><stop id="e5a0VUIpR7q5-stroke-2" offset="78%" stop-color="#2303f3"/><stop id="e5a0VUIpR7q5-stroke-3" offset="100%" stop-color="#1600a5"/></linearGradient></defs><rect width="24" height="24" rx="8" ry="8" transform="translate(.463 0)" fill="none"/><g transform="translate(0 0.000001)"><g transform="translate(0 0.000001)"><path style="mix-blend-mode:hue" d="M14.56281,5.24838v4.52122c0,1.2485-.8958,2.26057-2.00087,2.26057s-2.00087-1.01206-2.00087-2.26057v-4.52122c0-1.24848.8958-2.26059,2.00087-2.26059s2.00087,1.01211,2.00087,2.26059Zm-3.0013,14.31704v-2.35724c.32474.06538.6591.09946,1.00043.09946s.6757-.03409,1.00043-.09946v2.35724h-2.00086ZM18.2311,9.7696c0,1.56514-.49694,2.99931-1.32231,4.11177L15.4854,12.27334c.46741-.69564.74481-1.56306.74481-2.50374h2.00089Zm-5.66916,6.40497c-3.13098,0-5.66916-2.86762-5.66916-6.40498h2.00087c0,2.28885,1.64229,4.14441,3.66829,4.14441.83252,0,1.60038-.31342,2.21604-.84152l1.42339,1.60824c-.98473.93239-2.2541,1.49385-3.63943,1.49385Z" paint-order="stroke markers fill" clip-rule="evenodd" fill="none" fill-rule="evenodd" stroke="url(#e5a0VUIpR7q5-stroke)" stroke-width="0.6"/></g></g></svg>
